# Apple ModelIO OBJ File: bullet
mtllib bullet.mtl
g 
v 0.00868 -0.406511 -0.108524
v 0.32031 -0.112732 0.784157
v -0.00868 -0.041748 1.66595
v -0.370955 -0.08071 0.773266
v 0.008681 -0.034815 -1.66595
v -0.501035 -0.072243 -0.784157
v -0.00868 0.354282 0.108524
v 0.43998 -0.094288 -0.773265
vn -0.0485 -0.9785 0.2007
vn 0.0254 0.9765 -0.2139
vn 0.4894 -0.8674 -0.0898
vn 0.7231 0.6806 0.1183
vn -0.6613 0.7398 0.1237
vn -0.4616 -0.8827 -0.0885
vt 0.902271 0.342602
vt 0.705465 0.527722
vt 0.717776 0.747741
vt 0.902271 0.626687
vt 0.999795 0.342193
vt 0.768087 0.318734
vt 0.705465 0.00020498
vt 0.999795 0.128506
vt 0.553622 0.482391
vt 0.616642 0.00020498
vt 0.705056 0.303506
vt 0.705056 0.737974
vt 0.379673 0.28524
vt 0.379673 0.744596
vt 0.189967 0.474539
vt 0.308752 0.00020498
vt 0.124114 0.00020498
vt 0.000205 0.473814
vt 0.189558 0.7572
vt 0.189558 0.296099
vt 0.442166 0.00020498
vt 0.380082 0.481901
vt 0.553213 0.736361
vt 0.553213 0.305268
usemtl material_1
f 1/1/1 2/2/1 3/3/1 4/4/1 
f 5/5/2 6/6/2 7/7/2 8/8/2 
f 1/9/3 5/10/3 8/11/3 2/12/3 
f 2/13/4 8/14/4 7/15/4 3/16/4 
f 3/17/5 7/18/5 6/19/5 4/20/5 
f 5/21/6 1/22/6 4/23/6 6/24/6 
s off
